<?xml version="1.0" encoding="UTF-8"?>
<svg version="1.1" xmlns="http://www.w3.org/2000/svg" width="144" height="144">
<path d="M0 0 C4.75047821 2.10329172 9.20294694 4.64439733 13.6875 7.25 C14.97362431 7.98150951 16.26057982 8.71155943 17.54833984 9.44018555 C20.13806973 10.90904302 22.7219518 12.38744939 25.30126953 13.87451172 C28.67506482 15.81804812 32.06672528 17.72815534 35.46484375 19.62890625 C37.351953 20.6894096 39.23869782 21.75056181 41.125 22.8125 C42.41990356 23.53904785 42.41990356 23.53904785 43.7409668 24.28027344 C44.53027588 24.73047852 45.31958496 25.18068359 46.1328125 25.64453125 C46.81230957 26.02971924 47.49180664 26.41490723 48.19189453 26.81176758 C50.18521379 28.12171692 51.52439124 29.10986719 53 31 C53.39440918 33.76353455 53.39440918 33.76353455 53.41992188 37.15209961 C53.44378967 39.05438576 53.44378967 39.05438576 53.46813965 40.99510193 C53.46940687 42.38084864 53.46958379 43.76659671 53.46875 45.15234375 C53.47585073 46.57337241 53.4835496 47.9943982 53.49182129 49.41542053 C53.50527015 52.39380869 53.50683327 55.37193177 53.50097656 58.3503418 C53.49508059 62.16514072 53.52566326 65.97866686 53.56609344 69.79321957 C53.59195831 72.72810199 53.59484906 75.66267747 53.59120178 78.59765816 C53.5928943 80.00388348 53.60254973 81.41012277 53.62034607 82.8162365 C53.64250434 84.78353557 53.62963428 86.7511347 53.61523438 88.71850586 C53.61728882 89.83752792 53.61934326 90.95654999 53.62145996 92.10948181 C52.79676601 95.94527658 51.2270585 96.9027451 48 99 C46.13930206 100.1252601 44.25165978 101.20678987 42.34375 102.25 C41.24844971 102.85320068 40.15314941 103.45640137 39.0246582 104.07788086 C37.84994679 104.7189074 36.6750569 105.35960697 35.5 106 C33.06499191 107.33206771 30.6315676 108.6669893 28.19921875 110.00390625 C27.28634346 110.50513756 27.28634346 110.50513756 26.35502625 111.01649475 C22.47082213 113.15921183 18.63958116 115.3750532 14.83203125 117.65234375 C13.89488281 118.20857422 12.95773438 118.76480469 11.9921875 119.33789062 C10.25325586 120.37592635 8.52218893 121.4272962 6.80078125 122.49414062 C2.76391746 124.88770871 -0.90843909 126.94353593 -5.77270508 126.58520508 C-11.10801369 125.18339265 -15.7787741 122.14354714 -20.5 119.375 C-21.68271687 118.69693413 -22.86624209 118.02027643 -24.05053711 117.3449707 C-27.10355913 115.59834517 -30.14398767 113.83091725 -33.18182373 112.05804443 C-36.12563461 110.34496371 -39.08119806 108.65255252 -42.03515625 106.95703125 C-46.19673665 104.55729226 -50.35738685 102.15615412 -54.50390625 99.73046875 C-55.73862671 99.00960083 -55.73862671 99.00960083 -56.99829102 98.27416992 C-59 97 -59 97 -61 95 C-61.26069641 92.34999084 -61.26069641 92.34999084 -61.2746582 88.94555664 C-61.28419022 87.67406265 -61.29372223 86.40256866 -61.30354309 85.09254456 C-61.30328167 83.69841484 -61.30234465 82.30428511 -61.30078125 80.91015625 C-61.30466688 79.48530451 -61.30900127 78.06045393 -61.31376648 76.63560486 C-61.32123454 73.64708708 -61.32093334 70.65868741 -61.31567383 67.67016602 C-61.30987989 63.83874326 -61.32680497 60.00780402 -61.3500185 56.17646122 C-61.36474504 53.23307972 -61.36562902 50.28981493 -61.36250877 47.34640312 C-61.36302259 45.93379191 -61.36827161 44.52117427 -61.37832069 43.10859871 C-61.3906447 41.13371587 -61.38196515 39.1587356 -61.37231445 37.18383789 C-61.37294388 36.05957901 -61.3735733 34.93532013 -61.3742218 33.7769928 C-61 31 -61 31 -59.63011169 29.20796204 C-57.38994566 27.54793129 -55.05628011 26.22100188 -52.609375 24.8828125 C-51.51794189 24.28154541 -50.42650879 23.68027832 -49.30200195 23.06079102 C-48.11819279 22.4151761 -46.93418767 21.76992039 -45.75 21.125 C-43.29953486 19.78481861 -40.85058437 18.44189662 -38.40234375 17.09765625 C-37.78308517 16.75816452 -37.1638266 16.41867279 -36.52580261 16.06889343 C-32.43690853 13.81820839 -28.39820413 11.49472359 -24.37890625 9.12109375 C-23.3537793 8.52087402 -22.32865234 7.9206543 -21.27246094 7.30224609 C-19.34447161 6.16905145 -17.42405861 5.02283461 -15.51269531 3.86181641 C-10.46573869 0.9179134 -5.92503034 -1.67947087 0 0 Z " fill="#2AB1EA" transform="translate(76,9)"/>
<path d="M0 0 C4.50849275 3.57423679 8.64429614 7.44070093 10.48828125 12.97265625 C7.70079606 14.64639376 4.90763698 16.31041892 2.11328125 17.97265625 C1.31921875 18.44960938 0.52515625 18.9265625 -0.29296875 19.41796875 C-1.43378906 20.09472656 -1.43378906 20.09472656 -2.59765625 20.78515625 C-3.29938965 21.20410156 -4.00112305 21.62304688 -4.72412109 22.0546875 C-6.51171875 22.97265625 -6.51171875 22.97265625 -8.51171875 22.97265625 C-9.23359375 22.04453125 -9.95546875 21.11640625 -10.69921875 20.16015625 C-14.16606407 15.90950242 -17.79328619 14.33836467 -23.125 13.62109375 C-29.90360418 13.26481856 -34.36260568 14.5173953 -39.51171875 18.97265625 C-44.62714207 24.49192878 -45.9826752 28.72469764 -45.82421875 36.15234375 C-45.19285945 41.85036142 -42.83879932 46.05691797 -38.57421875 49.84765625 C-32.65333779 53.95602263 -27.65353586 54.85449647 -20.51171875 53.97265625 C-15.05648242 52.22054041 -11.2744765 49.20575871 -7.51171875 44.97265625 C-3.37139029 46.51650754 0.42381178 48.48294563 4.30078125 50.59765625 C4.89826172 50.9225 5.49574219 51.24734375 6.11132812 51.58203125 C7.5716526 52.37644776 9.03015616 53.17421001 10.48828125 53.97265625 C7.5275011 62.18597426 1.76389611 67.52536359 -5.77734375 71.71875 C-17.5480703 77.11646889 -29.19731632 77.40426586 -41.36328125 73.30078125 C-53.21203011 68.30254972 -60.72051785 59.70657846 -65.51171875 47.97265625 C-69.25845357 36.77127807 -68.06061578 25.75621803 -63.51171875 14.97265625 C-57.22475806 3.67480115 -48.01931864 -3.69302144 -35.57421875 -7.33984375 C-22.88850847 -9.98375932 -10.62500424 -7.24222431 0 0 Z " fill="#FCFDFE" transform="translate(97.51171875,38.02734375)"/>
<path d="M0 0 C2.05078125 0.03255208 4.1015625 0.06510417 6.15234375 0.09765625 C6.15234375 2.07765625 6.15234375 4.05765625 6.15234375 6.09765625 C10.11234375 6.09765625 14.07234375 6.09765625 18.15234375 6.09765625 C18.15234375 4.11765625 18.15234375 2.13765625 18.15234375 0.09765625 C20.13234375 0.09765625 22.11234375 0.09765625 24.15234375 0.09765625 C24.29748177 4.34729752 24.38636412 8.5963026 24.46484375 12.84765625 C24.50673828 14.05421875 24.54863281 15.26078125 24.59179688 16.50390625 C24.60791016 17.6640625 24.62402344 18.82421875 24.640625 20.01953125 C24.66680908 21.0878418 24.69299316 22.15615234 24.7199707 23.25683594 C24.15234375 26.09765625 24.15234375 26.09765625 21.9753418 28.27441406 C19.19119363 30.07256494 16.40428604 31.75750997 13.49609375 33.34765625 C12.40079346 33.95085693 11.30549316 34.55405762 10.17700195 35.17553711 C9.00229054 35.81656365 7.82740065 36.45726322 6.65234375 37.09765625 C4.21733566 38.42972396 1.78391135 39.76464555 -0.6484375 41.1015625 C-1.56131279 41.60279381 -1.56131279 41.60279381 -2.49263 42.114151 C-6.37683412 44.25686808 -10.20807509 46.47270945 -14.015625 48.75 C-14.95277344 49.30623047 -15.88992187 49.86246094 -16.85546875 50.43554688 C-18.59440039 51.4735826 -20.32546732 52.52495245 -22.046875 53.59179688 C-26.08373879 55.98536496 -29.75609534 58.04119218 -34.62036133 57.68286133 C-39.95550818 56.28109141 -44.62686617 53.24168191 -49.34765625 50.47265625 C-50.52895908 49.79394959 -51.71101846 49.11655816 -52.89379883 48.44042969 C-55.33149475 47.04305034 -57.76275703 45.63527969 -60.18994141 44.21972656 C-63.18403291 42.47648799 -66.1947765 40.76526205 -69.2149353 39.06765747 C-71.99401152 37.50429597 -74.7640493 35.92508789 -77.53515625 34.34765625 C-78.57414062 33.76419434 -79.613125 33.18073242 -80.68359375 32.57958984 C-81.62847656 32.03383301 -82.57335937 31.48807617 -83.546875 30.92578125 C-84.38049561 30.45043945 -85.21411621 29.97509766 -86.07299805 29.48535156 C-86.65863525 29.02741211 -87.24427246 28.56947266 -87.84765625 28.09765625 C-87.84765625 27.10765625 -87.84765625 26.11765625 -87.84765625 25.09765625 C-85.76249932 23.59551039 -83.75431755 22.30628052 -81.53515625 21.03515625 C-80.35141053 20.3361948 -79.16781201 19.636984 -77.984375 18.9375 C-76.94925781 18.33035156 -75.91414063 17.72320312 -74.84765625 17.09765625 C-73.85765625 16.43765625 -72.86765625 15.77765625 -71.84765625 15.09765625 C-69.82421875 15.24609375 -69.82421875 15.24609375 -67.84765625 16.09765625 C-66.49609375 17.69921875 -66.49609375 17.69921875 -65.22265625 19.72265625 C-58.75335268 28.7248293 -49.51486633 32.9280542 -38.84765625 35.09765625 C-27.48447565 36.46746432 -16.8322998 33.57033529 -7.39453125 27.21484375 C-3.82080287 24.244045 -1.16902176 20.82781781 1.49609375 17.0390625 C2.04265625 16.39839844 2.58921875 15.75773437 3.15234375 15.09765625 C4.14234375 15.09765625 5.13234375 15.09765625 6.15234375 15.09765625 C6.48234375 14.43765625 6.81234375 13.77765625 7.15234375 13.09765625 C6.45109375 12.82953125 5.74984375 12.56140625 5.02734375 12.28515625 C1.98736135 11.02951135 -0.92043365 9.59530502 -3.84765625 8.09765625 C-2.83612374 0.14990083 -2.83612374 0.14990083 0 0 Z " fill="#2365C8" transform="translate(104.84765625,77.90234375)"/>
<path d="M0 0 C3.72800386 1.7765722 7.30074152 3.77745486 9.64453125 7.2421875 C9.39453125 10.4921875 9.39453125 10.4921875 8.64453125 13.2421875 C9.30453125 13.5721875 9.96453125 13.9021875 10.64453125 14.2421875 C8.66453125 14.2421875 6.68453125 14.2421875 4.64453125 14.2421875 C4.67756005 16.34702305 4.74697671 18.4513118 4.83203125 20.5546875 C4.88423828 22.31232422 4.88423828 22.31232422 4.9375 24.10546875 C5.33316178 27.43900465 5.33316178 27.43900465 8.1953125 29.16015625 C9.00355469 29.51722656 9.81179687 29.87429687 10.64453125 30.2421875 C8.81795144 35.173953 4.81723838 37.97477501 0.39453125 40.5546875 C-6.27396621 42.22181187 -12.50201059 42.02214742 -18.53515625 38.578125 C-23.31490112 35.07024357 -26.49423386 30.86800156 -28.35546875 25.2421875 C-29.29398234 18.63307599 -28.80467033 13.42585711 -24.8515625 7.9609375 C-18.12503636 0.23333567 -10.15357726 -3.2666567 0 0 Z " fill="#28AFE9" transform="translate(79.35546875,51.7578125)"/>
<path d="M0 0 C0.66 0.99 1.32 1.98 2 3 C-1.63 5.31 -5.26 7.62 -9 10 C-8.67 10.33 -8.34 10.66 -8 11 C-7.95919217 12.99958364 -7.95745644 15.00045254 -8 17 C-6.906875 16.979375 -5.81375 16.95875 -4.6875 16.9375 C-1 17 -1 17 2 18 C2 16.35 2 14.7 2 13 C5.87684087 11.80712589 8.91621923 11 13 11 C13 12.98 13 14.96 13 17 C14.98 17 16.96 17 19 17 C19 20.96 19 24.92 19 29 C17.02 29 15.04 29 13 29 C13 30.98 13 32.96 13 35 C9.04 35 5.08 35 1 35 C1 33.02 1 31.04 1 29 C-2.96 29.495 -2.96 29.495 -7 30 C-7.66 32.31 -8.32 34.62 -9 37 C-8.113125 37.268125 -7.22625 37.53625 -6.3125 37.8125 C-3.23122452 38.91710819 -0.73778595 40.22849144 2 42 C1.67 42.99 1.34 43.98 1 45 C-8.09973294 40.5015122 -17.12406077 35.93107735 -26 31 C-26 26.38 -26 21.76 -26 17 C-24.68 16.67 -23.36 16.34 -22 16 C-22.33 15.01 -22.66 14.02 -23 13 C-15.41 8.71 -7.82 4.42 0 0 Z " fill="#1181D2" transform="translate(110,49)"/>
<path d="M0 0 C1.23142778 0.78765863 2.45187043 1.59287728 3.65820312 2.41845703 C5.43927138 3.61929528 7.27772908 4.58597552 9.23046875 5.47851562 C7.40388894 10.41028112 3.40317588 13.21110313 -1.01953125 15.79101562 C-7.80721278 17.48793601 -13.89048661 17.18861317 -20.0078125 13.68945312 C-22.64040171 11.87991287 -24.74534811 9.94548883 -26.76953125 7.47851562 C-26.76953125 6.48851563 -26.76953125 5.49851562 -26.76953125 4.47851562 C-17.10775114 -2.9219968 -11.06230897 -6.6224074 0 0 Z " fill="#2163C7" transform="translate(80.76953125,76.521484375)"/>
<path d="M0 0 C0.66 0.33 1.32 0.66 2 1 C2 9.58 2 18.16 2 27 C0.02 27 -1.96 27 -4 27 C-4 25.02 -4 23.04 -4 21 C-7.3 21.66 -10.6 22.32 -14 23 C-14.33 24.65 -14.66 26.3 -15 28 C-18.3 27.67 -21.6 27.34 -25 27 C-25 25.02 -25 23.04 -25 21 C-25.66 20.67 -26.32 20.34 -27 20 C-26.2059375 19.45730469 -25.411875 18.91460937 -24.59375 18.35546875 C-23.5728125 17.64003906 -22.551875 16.92460938 -21.5 16.1875 C-19.96859375 15.12595703 -19.96859375 15.12595703 -18.40625 14.04296875 C-17.6121875 13.36878906 -16.818125 12.69460937 -16 12 C-16 11.01 -16 10.02 -16 9 C-13.38029207 7.46935061 -10.75498357 5.95030252 -8.125 4.4375 C-7.37863281 3.99986328 -6.63226563 3.56222656 -5.86328125 3.11132812 C-5.14785156 2.70205078 -4.43242188 2.29277344 -3.6953125 1.87109375 C-3.03547363 1.48880615 -2.37563477 1.10651855 -1.69580078 0.71264648 C-1.13618652 0.47747314 -0.57657227 0.2422998 0 0 Z " fill="#0881DD" transform="translate(127,39)"/>
<path d="M0 0 C2.05078125 0.03255208 4.1015625 0.06510417 6.15234375 0.09765625 C6.15234375 2.07765625 6.15234375 4.05765625 6.15234375 6.09765625 C10.11234375 6.09765625 14.07234375 6.09765625 18.15234375 6.09765625 C18.15234375 4.11765625 18.15234375 2.13765625 18.15234375 0.09765625 C20.13234375 0.09765625 22.11234375 0.09765625 24.15234375 0.09765625 C24.21021043 3.88925922 24.24589429 7.68074936 24.27734375 11.47265625 C24.29410156 12.55289063 24.31085938 13.633125 24.328125 14.74609375 C24.33457031 15.77734375 24.34101563 16.80859375 24.34765625 17.87109375 C24.35812988 18.82419434 24.36860352 19.77729492 24.37939453 20.75927734 C24.15234375 23.09765625 24.15234375 23.09765625 22.15234375 25.09765625 C19.66939379 23.81285663 17.19108466 22.52026935 14.71484375 21.22265625 C14.00779297 20.85785156 13.30074219 20.49304688 12.57226562 20.1171875 C7.265625 17.32421875 7.265625 17.32421875 6.15234375 15.09765625 C6.48234375 14.43765625 6.81234375 13.77765625 7.15234375 13.09765625 C6.45109375 12.82953125 5.74984375 12.56140625 5.02734375 12.28515625 C1.98736135 11.02951135 -0.92043365 9.59530502 -3.84765625 8.09765625 C-2.83612374 0.14990083 -2.83612374 0.14990083 0 0 Z " fill="#0781DD" transform="translate(104.84765625,77.90234375)"/>
<path d="M0 0 C0.33 0.66 0.66 1.32 1 2 C0.195625 2.61875 -0.60875 3.2375 -1.4375 3.875 C-4.03874519 5.74164041 -4.03874519 5.74164041 -5 8 C-4.34 8.33 -3.68 8.66 -3 9 C-3.33 9.33 -3.66 9.66 -4 10 C-4.04080783 11.99958364 -4.04254356 14.00045254 -4 16 C-2.02 16 -0.04 16 2 16 C2 17.98 2 19.96 2 22 C0.02 22 -1.96 22 -4 22 C-4 22.928125 -4 23.85625 -4 24.8125 C-4 31 -4 31 -5 33 C-4.34 33 -3.68 33 -3 33 C-3.33 33.66 -3.66 34.32 -4 35 C-8.95 32.36 -13.9 29.72 -19 27 C-19 22.38 -19 17.76 -19 13 C-17.68 12.67 -16.36 12.34 -15 12 C-15.33 11.01 -15.66 10.02 -16 9 C-10.72 6.03 -5.44 3.06 0 0 Z " fill="#1B86D1" transform="translate(103,53)"/>
<path d="M0 0 C1.34880564 1.31767936 2.68244412 2.65107374 4 4 C4.81082031 4.30035156 5.62164062 4.60070313 6.45703125 4.91015625 C9.89561638 6.38383559 11.39691525 8.50912934 13.6875 11.4375 C14.45449219 12.40558594 15.22148438 13.37367187 16.01171875 14.37109375 C17.3988443 16.2051517 18.72444451 18.08666676 20 20 C19.01 20 18.02 20 17 20 C15.74609375 18.49609375 15.74609375 18.49609375 14.4375 16.4375 C7.74552336 7.09523558 -1.99671127 2.93779204 -13 1 C-24.64449745 -0.13832427 -35.47734499 2.91348131 -44.78125 10.02734375 C-53.00412574 17.33817518 -58.25682269 27.31054217 -59.203125 38.375 C-59.33326383 45.66277474 -58.00203352 52.01881574 -56 59 C-55.66093392 60.33188704 -55.32515638 61.66464903 -55 63 C-56.485 63.495 -56.485 63.495 -58 64 C-58.64964023 62.10546779 -59.29455115 60.20931351 -59.9375 58.3125 C-60.47697266 56.72888672 -60.47697266 56.72888672 -61.02734375 55.11328125 C-64.15187937 45.11225761 -64.01122581 34.77220444 -60 25 C-59.02461957 23.97597216 -58.02760814 22.9716077 -57 22 C-56.79375 21.113125 -56.5875 20.22625 -56.375 19.3125 C-54.56588148 14.95416903 -51.81644918 12.87919126 -48.23828125 9.89453125 C-45.83428342 7.94172887 -45.83428342 7.94172887 -43.375 5.125 C-40.41173384 2.47365659 -37.82404028 1.95601007 -34 1 C-32.32983484 0.00585407 -30.66279327 -0.9935725 -29 -2 C-19.58487356 -4.34978538 -8.99615912 -3.63097989 0 0 Z " fill="#31AADA" transform="translate(90,30)"/>
<path d="M0 0 C1.98 0 3.96 0 6 0 C6 1.98 6 3.96 6 6 C7.98 6 9.96 6 12 6 C12 7.98 12 9.96 12 12 C10.02 12 8.04 12 6 12 C6 13.98 6 15.96 6 18 C4.02 18 2.04 18 0 18 C0 16.02 0 14.04 0 12 C-1.98 12 -3.96 12 -6 12 C-6 10.02 -6 8.04 -6 6 C-4.02 6 -2.04 6 0 6 C0 4.02 0 2.04 0 0 Z " fill="#FFFFFF" transform="translate(114,63)"/>
<path d="M0 0 C1.98 0 3.96 0 6 0 C6 1.98 6 3.96 6 6 C7.98 6 9.96 6 12 6 C12 7.98 12 9.96 12 12 C10.02 12 8.04 12 6 12 C6 13.98 6 15.96 6 18 C4.02 18 2.04 18 0 18 C0 16.02 0 14.04 0 12 C-1.98 12 -3.96 12 -6 12 C-6 10.02 -6 8.04 -6 6 C-4.02 6 -2.04 6 0 6 C0 4.02 0 2.04 0 0 Z " fill="#FFFFFF" transform="translate(93,63)"/>
<path d="M0 0 C0 1.98 0 3.96 0 6 C1.98 6 3.96 6 6 6 C6 9.96 6 13.92 6 18 C4.02 18 2.04 18 0 18 C0 19.98 0 21.96 0 24 C-3.96 24 -7.92 24 -12 24 C-11.505 19.545 -11.505 19.545 -11 15 C-10.34 15 -9.68 15 -9 15 C-9 16.98 -9 18.96 -9 21 C-7.02 21 -5.04 21 -3 21 C-3 19.02 -3 17.04 -3 15 C-1.02 15 0.96 15 3 15 C3 13.02 3 11.04 3 9 C1.02 9 -0.96 9 -3 9 C-3 7.02 -3 5.04 -3 3 C-4.98 3 -6.96 3 -9 3 C-9 4.98 -9 6.96 -9 9 C-10.65 9 -12.3 9 -14 9 C-13.67 8.34 -13.34 7.68 -13 7 C-12.34 7 -11.68 7 -11 7 C-11 5.35 -11 3.7 -11 2 C-7.12315913 0.80712589 -4.08378077 0 0 0 Z " fill="#0575CB" transform="translate(123,60)"/>
<path d="M0 0 C3.7932039 1.80764313 7.04121145 3.87956609 9.64453125 7.2421875 C9.64453125 8.2321875 9.64453125 9.2221875 9.64453125 10.2421875 C8.65453125 10.5721875 7.66453125 10.9021875 6.64453125 11.2421875 C6.38929687 10.62859375 6.1340625 10.015 5.87109375 9.3828125 C3.793277 5.75655906 0.4927163 4.56563739 -3.35546875 3.2421875 C-8.89853404 2.28503581 -13.4956546 3.4913493 -18.35546875 6.2421875 C-22.72293764 10.26303187 -25.20250158 14.63256756 -25.55078125 20.57421875 C-25.52757812 21.72277344 -25.504375 22.87132813 -25.48046875 24.0546875 C-25.46242187 25.21613281 -25.444375 26.37757812 -25.42578125 27.57421875 C-25.40257812 28.45464844 -25.379375 29.33507812 -25.35546875 30.2421875 C-28.43182142 27.16583483 -28.57709755 24.23700209 -28.73046875 20.0546875 C-28.6601936 13.40490111 -26.4653161 9.35998843 -21.828125 4.7109375 C-15.35500487 -0.9551015 -8.36115968 -2.68999167 0 0 Z " fill="#28A5DA" transform="translate(79.35546875,51.7578125)"/>
<path d="M0 0 C1.34880564 1.31767936 2.68244412 2.65107374 4 4 C4.81082031 4.30035156 5.62164062 4.60070313 6.45703125 4.91015625 C9.89561638 6.38383559 11.39691525 8.50912934 13.6875 11.4375 C14.45449219 12.40558594 15.22148438 13.37367187 16.01171875 14.37109375 C17.3988443 16.2051517 18.72444451 18.08666676 20 20 C19.01 20 18.02 20 17 20 C15.74609375 18.49609375 15.74609375 18.49609375 14.4375 16.4375 C9.05565566 8.92423216 1.07330202 3.76460081 -8 2 C-13.32833355 1.25485708 -18.67764876 0.7209316 -24.03637695 0.24951172 C-26.08219109 -0.01044378 -28.0108217 -0.46196406 -30 -1 C-20.83844049 -5.07180423 -9.10660443 -3.67555721 0 0 Z " fill="#2BA2D7" transform="translate(90,30)"/>
<path d="M0 0 C0 0.66 0 1.32 0 2 C0.66 2.33 1.32 2.66 2 3 C0.02 3 -1.96 3 -4 3 C-3.67 7.29 -3.34 11.58 -3 16 C-6.8127519 14.7290827 -9.90625009 13.66918099 -13.375 11.875 C-14.06335938 11.52179688 -14.75171875 11.16859375 -15.4609375 10.8046875 C-15.96882813 10.53914063 -16.47671875 10.27359375 -17 10 C-17 9.34 -17 8.68 -17 8 C-14.73354942 6.65869239 -12.46239903 5.32683766 -10.1875 4 C-9.54490234 3.6184375 -8.90230469 3.236875 -8.24023438 2.84375 C-3.33984375 0 -3.33984375 0 0 0 Z " fill="#229AED" transform="translate(88,63)"/>
<path d="M0 0 C0.99 0.33 1.98 0.66 3 1 C-0.43478978 8.85094808 -7.25032576 15.50504887 -15 19 C-17.125 19.625 -17.125 19.625 -19 20 C-20.6744239 20.6469365 -22.34302621 21.30959426 -24 22 C-22.99147809 19.35889842 -22.32719852 18.19500314 -19.86328125 16.7265625 C-19.02152344 16.36304687 -18.17976563 15.99953125 -17.3125 15.625 C-9.47521132 11.9209212 -4.74073543 7.18293247 0 0 Z " fill="#1957B4" transform="translate(108,93)"/>
<path d="M0 0 C0.98484375 0.01804688 1.9696875 0.03609375 2.984375 0.0546875 C4.10585937 0.08949219 4.10585937 0.08949219 5.25 0.125 C5.25 0.455 5.25 0.785 5.25 1.125 C3.85587891 1.34542969 3.85587891 1.34542969 2.43359375 1.5703125 C-8.00649082 3.39097102 -8.00649082 3.39097102 -15.75 10.125 C-18.06979684 14.46099611 -17.98649707 18.63883754 -17.875 23.4375 C-17.86597656 24.17806641 -17.85695312 24.91863281 -17.84765625 25.68164062 C-17.82424213 27.49623467 -17.78837615 29.31066071 -17.75 31.125 C-20.82635267 28.04864733 -20.9716288 25.11981459 -21.125 20.9375 C-21.05472485 14.28771361 -18.85984735 10.24280093 -14.22265625 5.59375 C-9.53723579 1.49251682 -6.20942541 -0.14784346 0 0 Z " fill="#3CABD8" transform="translate(71.75,50.875)"/>
<path d="M0 0 C0.99 0 1.98 0 3 0 C4.24609375 1.4609375 4.24609375 1.4609375 5.4375 3.375 C7.95895268 7.16311751 7.95895268 7.16311751 12 9 C13.32 9 14.64 9 16 9 C19.58453376 9 21.10879553 9.07253036 24 11 C22.38746547 12.61253453 20.66400957 12.24791423 18.4375 12.3125 C11.51038697 12.23333299 7.18835056 9.8692161 2 5.4375 C0 3 0 3 0 0 Z " fill="#2F67BC" transform="translate(54,81)"/>
<path d="M0 0 C1.32 0.66 2.64 1.32 4 2 C3.67 3.32 3.34 4.64 3 6 C1.68 6 0.36 6 -1 6 C-0.67 8.64 -0.34 11.28 0 14 C1.32 14.33 2.64 14.66 4 15 C3.67 16.32 3.34 17.64 3 19 C1.02 18.67 -0.96 18.34 -3 18 C-3 13.38 -3 8.76 -3 4 C-1.68 3.67 -0.36 3.34 1 3 C0.67 2.01 0.34 1.02 0 0 Z " fill="#1C90E0" transform="translate(87,62)"/>
<path d="M0 0 C0.33 0 0.66 0 1 0 C2.33333333 5.33333333 3.66666667 10.66666667 5 16 C4.01 16.33 3.02 16.66 2 17 C-0.81115003 10.81546992 -1.27947184 6.65941972 0 0 Z " fill="#32AADA" transform="translate(30,77)"/>
<path d="M0 0 C4.95 0 9.9 0 15 0 C14.01 1.485 14.01 1.485 13 3 C10.3984375 3.29296875 10.3984375 3.29296875 7.375 3.1875 C5.87066406 3.14689453 5.87066406 3.14689453 4.3359375 3.10546875 C3.56507812 3.07066406 2.79421875 3.03585938 2 3 C2 2.34 2 1.68 2 1 C1.34 0.67 0.68 0.34 0 0 Z " fill="#1E5BB8" transform="translate(64,114)"/>
<path d="M0 0 C1.32 0 2.64 0 4 0 C2.4169423 4.2742558 -0.50568404 6.26531794 -4 9 C-4.33 8.01 -4.66 7.02 -5 6 C-2.8125 2.8125 -2.8125 2.8125 0 0 Z " fill="#2560B8" transform="translate(86,82)"/>
<path d="M0 0 C0.99 0.33 1.98 0.66 3 1 C2.34 4.3 1.68 7.6 1 11 C0.01 10.67 -0.98 10.34 -2 10 C-1.125 2.25 -1.125 2.25 0 0 Z " fill="#3BB1DE" transform="translate(30,55)"/>
<path d="M0 0 C1.65 0.33 3.3 0.66 5 1 C4.34 2.32 3.68 3.64 3 5 C3.66 5 4.32 5 5 5 C4.67 5.66 4.34 6.32 4 7 C2.02 6.01 0.04 5.02 -2 4 C-1.34 2.68 -0.68 1.36 0 0 Z " fill="#228AD3" transform="translate(95,81)"/>
<path d="M0 0 C0.99 0.33 1.98 0.66 3 1 C2 4 2 4 -1.0625 5.6875 C-2.031875 6.120625 -3.00125 6.55375 -4 7 C-2.79618552 4.50638429 -1.54571278 2.31856917 0 0 Z " fill="#1F5BB3" transform="translate(108,93)"/>
<path d="M0 0 C0.33 0 0.66 0 1 0 C2.25 7.625 2.25 7.625 0 11 C-1.26026798 8.47946405 -0.91874445 7.1457902 -0.5625 4.375 C-0.46066406 3.55773437 -0.35882812 2.74046875 -0.25390625 1.8984375 C-0.17011719 1.27195312 -0.08632813 0.64546875 0 0 Z " fill="#44B4DE" transform="translate(30,77)"/>
<path d="M0 0 C-0.33 1.32 -0.66 2.64 -1 4 C-5.75 3.25 -5.75 3.25 -8 1 C-5.23735711 0.40267181 -2.83967231 0 0 0 Z " fill="#366CBD" transform="translate(85,112)"/>
</svg>
