<?xml version="1.0" encoding="UTF-8"?>
<svg version="1.1" xmlns="http://www.w3.org/2000/svg" width="144" height="144">
<path d="M0 0 C0.88988113 -0.00511093 1.77976227 -0.01022186 2.6966095 -0.01548767 C5.63773324 -0.02938583 8.57862272 -0.02842675 11.51977539 -0.02612305 C13.56474393 -0.03000979 15.60971166 -0.03434442 17.65467834 -0.03910828 C21.94103614 -0.04657093 26.22731157 -0.04627882 30.51367188 -0.04101562 C36.00610955 -0.03522031 41.49821008 -0.05215339 46.990592 -0.0753603 C51.21393301 -0.09009297 55.43719273 -0.09096998 59.66055489 -0.08785057 C61.68554922 -0.08836399 63.71054808 -0.09360569 65.7355175 -0.10366249 C68.56739073 -0.11600069 71.39860603 -0.10925091 74.23046875 -0.09765625 C75.06647614 -0.10529999 75.90248352 -0.11294373 76.76382446 -0.12081909 C81.38780516 -0.07897923 84.43795239 0.25987371 88.17993164 3.2746582 C90.80616102 7.21400227 90.4752764 10.59210049 90.47045898 15.16479492 C90.47717621 16.07403717 90.48389343 16.98327942 90.49081421 17.92007446 C90.50984169 20.93155351 90.51372084 23.94281025 90.51586914 26.9543457 C90.52229389 29.04558403 90.529022 31.13682145 90.53604126 33.22805786 C90.548026 37.6145435 90.55172086 42.00095031 90.55053711 46.38745117 C90.55033388 52.00891033 90.5776348 57.62986416 90.61208153 63.25120354 C90.63431702 67.57148562 90.63837567 71.89164546 90.63731766 76.21197891 C90.63967872 78.28443264 90.64853054 80.35688949 90.66398239 82.42928696 C90.68357386 85.32846217 90.67783106 88.22653961 90.66577148 91.12573242 C90.6770105 91.98201233 90.68824951 92.83829224 90.6998291 93.72052002 C90.65699401 97.7720615 90.49302072 99.78016952 88.27456665 103.28396606 C84.35997995 107.00429774 80.63275804 106.42907052 75.49511719 106.43579102 C74.14610321 106.44323837 74.14610321 106.44323837 72.76983643 106.45083618 C69.78543338 106.46547799 66.8010835 106.47226344 63.81665039 106.4777832 C61.74640399 106.48353334 59.67615761 106.48929109 57.60591125 106.49505615 C53.26054638 106.50557212 48.91520004 106.51141077 44.56982422 106.51489258 C39.0011247 106.52037618 33.43266984 106.54439893 27.86404705 106.57286453 C23.58581324 106.59148718 19.30763837 106.59669633 15.02936745 106.59822845 C12.97645544 106.60125674 10.92354452 106.60929118 8.87067223 106.62241364 C5.99790213 106.63946492 3.12572983 106.63759597 0.25292969 106.63110352 C-0.59557053 106.6403183 -1.44407074 106.64953308 -2.31828308 106.6590271 C-6.94593321 106.626259 -10.12564515 106.37627645 -13.82006836 103.2746582 C-16.72745607 99.60209095 -16.10792866 94.92044065 -16.09472656 90.45458984 C-16.09983749 89.56470871 -16.10494843 88.67482758 -16.11021423 87.75798035 C-16.1241124 84.8168566 -16.12315332 81.87596713 -16.12084961 78.93481445 C-16.12473635 76.88984591 -16.12907098 74.84487818 -16.13383484 72.7999115 C-16.14129749 68.5135537 -16.14100538 64.22727827 -16.13574219 59.94091797 C-16.12994687 54.4484803 -16.14687995 48.95637977 -16.17008686 43.46399784 C-16.18481953 39.24065683 -16.18569654 35.01739711 -16.18257713 30.79403496 C-16.18309056 28.76904063 -16.18833226 26.74404177 -16.19838905 24.71907234 C-16.21072725 21.88719911 -16.20397747 19.05598382 -16.19238281 16.22412109 C-16.20002655 15.38811371 -16.20767029 14.55210632 -16.21554565 13.69076538 C-16.17393712 9.09234989 -15.89223068 5.94983449 -12.82006836 2.2746582 C-9.1475011 -0.63272951 -4.46585081 -0.0132021 0 0 Z " fill="#388FD8" transform="translate(32.820068359375,18.725341796875)"/>
<path d="M0 0 C5.74374322 5.04753192 5.74374322 5.04753192 6.484375 9.1484375 C6.72108664 13.52760281 6.60168085 16.79795942 3.8125 20.3125 C-0.10825668 23.87682425 -1.60257931 24.8125 -6.9375 24.8125 C-5.86360076 22.58209388 -4.82282461 20.66253987 -3.3125 18.6875 C-1.33224905 14.54697528 -1.15641098 10.33056393 -1.9375 5.8125 C-3.16867697 3.96104914 -3.16867697 3.96104914 -4.9375 2.8125 C-9.96671568 2.51074706 -12.56865318 3.95597871 -16.4375 7.125 C-26.2276007 16.48146762 -31.99211471 29.58600314 -32.4375 43.0625 C-32.20234173 50.40916881 -30.50723338 54.78928426 -25.8125 60.3125 C-21.462142 62.582252 -17.73918847 62.62091199 -12.9375 61.8125 C-6.70034005 59.57774666 -1.87431982 56.13221734 3.0625 51.8125 C3.7225 51.8125 4.3825 51.8125 5.0625 51.8125 C4.40536692 57.06956463 2.41464179 58.86238245 -1.578125 62.09765625 C-9.72811283 68.02124012 -16.78650007 70.23231306 -26.9375 68.8125 C-33.6536798 66.68471914 -37.57210837 61.40203586 -40.75 55.375 C-44.47683435 44.06524257 -42.02232449 32.21975761 -36.9375 21.8125 C-29.70327606 8.65534729 -16.56099472 -6.6948702 0 0 Z " fill="#F7FAFD" transform="translate(87.9375,38.1875)"/>
<path d="M0 0 C0 0.66 0 1.32 0 2 C0.763125 1.896875 1.52625 1.79375 2.3125 1.6875 C3.199375 1.790625 4.08625 1.89375 5 2 C6.8125 4.5 6.8125 4.5 8 7 C5 7 5 7 3 5.5 C-1.69356406 3.15321797 -5.86489535 3.08229404 -11 4 C-23.63844208 9.35033097 -30.91470432 20.74022666 -36 33 C-37.82884418 38.37222978 -38.39406267 43.32283625 -38.625 48.9375 C-38.66367187 49.71673828 -38.70234375 50.49597656 -38.7421875 51.29882812 C-38.83544127 53.19887379 -38.91875962 55.09940278 -39 57 C-39.33 57 -39.66 57 -40 57 C-40.33 55.35 -40.66 53.7 -41 52 C-41.33 52 -41.66 52 -42 52 C-42.51761005 41.91618948 -40.83453706 33.8955482 -36 25 C-35.74863281 24.40960938 -35.49726562 23.81921875 -35.23828125 23.2109375 C-30.94896522 13.46778524 -22.8202694 5.18279239 -13.1875 0.6875 C-8.7719561 -0.26487221 -4.49821959 -0.16001572 0 0 Z " fill="#29ACC5" transform="translate(85,34)"/>
<path d="M0 0 C2.46529955 1.58483543 2.9071255 3.38565786 3.75 6.125 C-1.73912187 13.56623915 -8.81494897 19.46464427 -17.9296875 21.81640625 C-23.45127503 22.49585394 -28.7662246 21.92103191 -34.25 21.125 C-34.25 20.135 -34.25 19.145 -34.25 18.125 C-33.22261719 18.19460937 -32.19523437 18.26421875 -31.13671875 18.3359375 C-21.61655614 18.7839587 -15.20971875 17.8865803 -7.25 12.125 C-6.61191406 11.68414062 -5.97382812 11.24328125 -5.31640625 10.7890625 C-1.96596711 8.26618986 -0.64791812 5.99665342 0.75 2.125 C0.03714844 2.66769531 -0.67570312 3.21039063 -1.41015625 3.76953125 C-9.1305895 9.53647668 -14.93549802 13.80520158 -24.87109375 13.5625 C-28.75886473 12.84750764 -30.56699879 10.9492118 -33.25 8.125 C-30.25 8.125 -30.25 8.125 -28.5 9.5625 C-25.50870588 11.63978758 -22.82727324 11.78103142 -19.25 12.125 C-19.25 11.465 -19.25 10.805 -19.25 10.125 C-18.198125 10.00125 -18.198125 10.00125 -17.125 9.875 C-12.26490291 8.60714859 -8.78559355 5.62270928 -5.125 2.3125 C-2.25 0.125 -2.25 0.125 0 0 Z " fill="#5862D6" transform="translate(92.25,87.875)"/>
<path d="M0 0 C2 3 2 3 1.625 5.1875 C1.41875 5.785625 1.2125 6.38375 1 7 C0.34 6.34 -0.32 5.68 -1 5 C-1 4.01 -1 3.02 -1 2 C-8.36433533 3.0968159 -12.5522948 7.19574472 -17 13 C-19.1864922 16.67799223 -21.13733013 20.4684737 -22.99365234 24.32250977 C-23.34379395 25.04108154 -23.69393555 25.75965332 -24.0546875 26.5 C-24.35874512 27.1496875 -24.66280273 27.799375 -24.97607422 28.46875 C-26 30 -26 30 -29 31 C-26.03910662 18.25405895 -19.66656091 8.13324873 -9.5 0 C-5.98278665 -1.40688534 -3.61694344 -0.95541902 0 0 Z " fill="#33A1C8" transform="translate(85,41)"/>
<path d="M0 0 C1.55718631 2.38157906 1.99772003 3.94870063 2.125 6.8125 C0.43422479 11.60302975 -2.81256677 14.23888738 -7 17 C-10.5 17.9375 -10.5 17.9375 -13 18 C-13.33 17.34 -13.66 16.68 -14 16 C-13.39671875 15.70867188 -12.7934375 15.41734375 -12.171875 15.1171875 C-7.01188819 12.47061362 -3.68010999 10.36021999 -1 5 C-0.21784412 2.2717496 -0.21784412 2.2717496 0 0 Z " fill="#4080CD" transform="translate(95,48)"/>
<path d="M0 0 C0.99 0.33 1.98 0.66 3 1 C3.29402058 5.99834992 3.20219742 9.05062318 0 13 C-3.1875 15.3125 -3.1875 15.3125 -6 17 C-5.57481961 14.13003234 -4.96824411 12.96427463 -3 10.75 C-0.32566016 7.07278272 -0.30466808 4.49385423 0 0 Z " fill="#358BCA" transform="translate(84,46)"/>
<path d="M0 0 C1.485 0.99 1.485 0.99 3 2 C3.2578125 4.35546875 3.2578125 4.35546875 3.125 7.1875 C2.99642042 11.62933991 3.2235248 15.63232701 4 20 C2 19 2 19 0.8828125 16.89453125 C-0.19172254 13.37138761 -0.19373791 10.36497807 -0.125 6.6875 C-0.10695312 5.43324219 -0.08890625 4.17898437 -0.0703125 2.88671875 C-0.03550781 1.45779297 -0.03550781 1.45779297 0 0 Z " fill="#478DCE" transform="translate(55,74)"/>
<path d="M0 0 C0.94148531 2.82445592 1.07311695 4.14171618 0.87890625 7.01171875 C0.83056641 7.76904297 0.78222656 8.52636719 0.73242188 9.30664062 C0.67634766 10.09232422 0.62027344 10.87800781 0.5625 11.6875 C0.51029297 12.48478516 0.45808594 13.28207031 0.40429688 14.10351562 C0.27480978 16.06936522 0.13809959 18.03473665 0 20 C-0.33 20 -0.66 20 -1 20 C-1.33 18.35 -1.66 16.7 -2 15 C-2.33 15 -2.66 15 -3 15 C-3.08142927 13.2507786 -3.13938541 11.50045458 -3.1875 9.75 C-3.22230469 8.77546875 -3.25710937 7.8009375 -3.29296875 6.796875 C-2.96075202 3.62531258 -2.11327721 2.32959693 0 0 Z " fill="#2D95C6" transform="translate(46,71)"/>
<path d="M0 0 C0 0.66 0 1.32 0 2 C0.763125 1.896875 1.52625 1.79375 2.3125 1.6875 C3.199375 1.790625 4.08625 1.89375 5 2 C6.8125 4.5 6.8125 4.5 8 7 C5 7 5 7 2.8125 5.5625 C0.09814 4.05452222 -1.2542885 3.72688895 -4.25 3.4375 C-5.4875 3.293125 -6.725 3.14875 -8 3 C-8.33 2.34 -8.66 1.68 -9 1 C-5.92677456 0.08941469 -3.19902639 -0.08886184 0 0 Z " fill="#31A6C6" transform="translate(85,34)"/>
<path d="M0 0 C2.49361571 1.20381448 4.68143083 2.45428722 7 4 C9.32387947 4.39387788 11.65793749 4.73486085 14 5 C14 4.34 14 3.68 14 3 C17.465 2.505 17.465 2.505 21 2 C21 2.66 21 3.32 21 4 C16.25926412 6.52839247 11.23789994 6.85209856 6 6 C3.42754996 4.58946527 2.02939122 3.18960632 0 1 C0 0.67 0 0.34 0 0 Z " fill="#4A66CE" transform="translate(59,95)"/>
<path d="M0 0 C0.33 0.66 0.66 1.32 1 2 C0.328125 3.91015625 0.328125 3.91015625 -0.75 6.0625 C-1.09546875 6.77535156 -1.4409375 7.48820312 -1.796875 8.22265625 C-3 10 -3 10 -6 11 C-5.57781184 9.3501725 -5.13675575 7.70516335 -4.6875 6.0625 C-4.44386719 5.14597656 -4.20023438 4.22945313 -3.94921875 3.28515625 C-3.47935547 2.15400391 -3.47935547 2.15400391 -3 1 C-2.01 0.67 -1.02 0.34 0 0 Z " fill="#3C9DCB" transform="translate(62,61)"/>
<path d="M0 0 C4.455 0.99 4.455 0.99 9 2 C6 4 6 4 2.8125 3.625 C1.884375 3.41875 0.95625 3.2125 0 3 C0 2.01 0 1.02 0 0 Z " fill="#4A64D1" transform="translate(58,106)"/>
<path d="M0 0 C1.32 0 2.64 0 4 0 C5.75 2.5 5.75 2.5 7 5 C3.09161134 5 1.88405893 3.49432124 -1 1 C-0.67 0.67 -0.34 0.34 0 0 Z " fill="#3D9ECA" transform="translate(86,36)"/>
</svg>
