<?xml version="1.0" encoding="UTF-8"?>
<svg version="1.1" xmlns="http://www.w3.org/2000/svg" width="144" height="144">
<path d="M0 0 C0.8075473 -0.00845947 1.6150946 -0.01691895 2.44711304 -0.02563477 C3.32928497 -0.01956207 4.21145691 -0.01348938 5.12036133 -0.00723267 C6.51830429 -0.0151181 6.51830429 -0.0151181 7.94448853 -0.02316284 C11.03062613 -0.03638602 14.11624956 -0.02761646 17.20239258 -0.01748657 C19.34326273 -0.01950664 21.48413221 -0.02241751 23.625 -0.02618408 C28.11408025 -0.03061058 32.60298155 -0.02416581 37.09204102 -0.01016235 C42.85263818 0.0069296 48.61281606 -0.00290983 54.37339783 -0.02087975 C58.79483207 -0.03170871 63.21616655 -0.0282753 67.63760376 -0.02049637 C69.76193287 -0.01849191 71.88627098 -0.02096221 74.0105896 -0.02793503 C76.97711256 -0.03553482 79.94295192 -0.02396577 82.90942383 -0.00723267 C84.23268173 -0.01634171 84.23268173 -0.01634171 85.58267212 -0.02563477 C86.79399307 -0.01294556 86.79399307 -0.01294556 88.02978516 0 C88.73106033 0.00113108 89.43233551 0.00226215 90.15486145 0.00342751 C92.62918623 0.50563177 93.51678809 1.37349443 95.01489258 3.38095093 C95.70689719 12.25278941 94.34276902 21.33946291 93.55395508 30.18954468 C93.4016206 31.92390861 93.24947338 33.658289 93.09750366 35.39268494 C92.77901121 39.01637487 92.45752441 42.63978403 92.1340332 46.26303101 C91.72188787 50.88312432 91.3183502 55.50392315 90.91721535 60.12498379 C90.60539054 63.70375736 90.28838496 67.28205833 89.96992111 70.86024666 C89.81911747 72.56276466 89.67001657 74.26543445 89.52272415 75.96825981 C87.42815507 100.105057 87.42815507 100.105057 84.1590271 103.056427 C81.11942771 104.93411801 77.87166507 105.87024842 74.46801758 106.86141968 C73.73798523 107.07913528 73.00795288 107.29685089 72.25579834 107.52116394 C70.71384782 107.97823052 69.17061742 108.43099861 67.6262207 108.87973022 C65.28258495 109.56329065 62.94569427 110.26705081 60.60864258 110.9727478 C59.10379956 111.41604709 57.5986015 111.8581433 56.09301758 112.29891968 C55.40314758 112.50824631 54.71327759 112.71757294 54.00250244 112.9332428 C46.19905764 115.16161216 39.6913968 114.65171836 31.97192383 112.36923218 C31.24043625 112.1591301 30.50894867 111.94902802 29.7552948 111.7325592 C28.22181771 111.28824596 26.68994345 110.83836593 25.15966797 110.38314819 C22.82830361 109.69372034 20.48989695 109.03367462 18.1496582 108.37509155 C16.65239894 107.9373945 15.15563503 107.49799862 13.65942383 107.05673218 C12.62021538 106.76733513 12.62021538 106.76733513 11.56001282 106.47209167 C6.82033066 105.02500105 3.87620392 103.45834437 1.01489258 99.38095093 C0.07488011 95.78302242 -0.1944158 92.19579358 -0.46166992 88.49423218 C-0.55759933 87.41588608 -0.65352875 86.33753998 -0.75236511 85.22651672 C-1.05958099 81.71694805 -1.33512415 78.20567895 -1.61010742 74.69345093 C-1.81467864 72.28344504 -2.02131132 69.87361327 -2.22998047 67.46395874 C-2.64231878 62.66779081 -3.04280728 57.87087592 -3.43286133 53.07284546 C-3.9081298 47.25403468 -4.42332301 41.43995703 -4.96557617 35.62704468 C-5.11002278 34.06609813 -5.2543945 32.50514465 -5.39868164 30.94418335 C-5.69360062 27.75524643 -5.69360062 27.75524643 -5.98956299 24.56640625 C-7.83485756 4.52989465 -7.83485756 4.52989465 -5.71781921 1.66745567 C-3.62573324 0.1141226 -2.58444007 0.00416841 0 0 Z " fill="#138DE5" transform="translate(27.985107421875,14.619049072265625)"/>
<path d="M0 0 C17.82 0 35.64 0 54 0 C52.84857383 29.93708054 52.84857383 29.93708054 51.9375 44.125 C51.84541924 45.59633643 51.75362311 47.0676907 51.66210938 48.5390625 C51.44463311 52.02625024 51.22349663 55.51319225 51 59 C47.48712845 60.21200135 43.96375309 61.39005993 40.4375 62.5625 C38.9515332 63.07586914 38.9515332 63.07586914 37.43554688 63.59960938 C27.87105556 66.74540552 21.38173357 64.99194081 12.0625 61.9375 C11.18787109 61.65583984 10.31324219 61.37417969 9.41210938 61.08398438 C7.27310866 60.3943612 5.13632132 59.69787919 3 59 C3 53.39 3 47.78 3 42 C6.63 42 10.26 42 14 42 C14.33 44.31 14.66 46.62 15 49 C20.71826869 51.72867955 25.23863242 53.75186164 31.5 51.8125 C33.01088939 51.23610551 34.5129326 50.6353329 36 50 C36.99 49.67 37.98 49.34 39 49 C39.33 44.71 39.66 40.42 40 36 C31.42 36 22.84 36 14 36 C13 32 13 32 13 24 C22.24 24 31.48 24 41 24 C41 20.04 41 16.08 41 12 C27.47 12 13.94 12 0 12 C0 8.04 0 4.08 0 0 Z " fill="#FCFEFE" transform="translate(45,39)"/>
<path d="M0 0 C5.67830078 -0.02464705 11.35657069 -0.04283462 17.03491211 -0.05493164 C18.96818585 -0.05997256 20.90145576 -0.06680519 22.8347168 -0.07543945 C25.60726872 -0.08751565 28.37977041 -0.09323057 31.15234375 -0.09765625 C32.45702858 -0.10539818 32.45702858 -0.10539818 33.78807068 -0.11329651 C35.85905814 -0.11349185 37.92994324 -0.06208168 40 0 C41 1 41 1 41.17578125 4.93359375 C41.09136027 13.01368317 40.06159333 21.03811145 39.1875 29.0625 C38.81436784 32.53871217 38.44512283 36.01532259 38.078125 39.4921875 C37.98554916 40.36709335 37.89297333 41.24199921 37.79759216 42.14341736 C37.18512277 48.00988916 36.65117833 53.87905377 36.171875 59.7578125 C36.0767437 60.90191841 36.0767437 60.90191841 35.97969055 62.06913757 C35.61649546 66.44391563 35.61649546 66.44391563 35.28036499 70.8208313 C35.13437874 72.80198988 34.97188073 74.78191101 34.80859375 76.76171875 C34.72407959 77.87506592 34.63956543 78.98841309 34.55249023 80.13549805 C33.9333988 83.34530795 33.35998263 84.74875055 31 87 C28.24438477 88.18847656 28.24438477 88.18847656 24.94140625 89.140625 C23.75095703 89.48867187 22.56050781 89.83671875 21.33398438 90.1953125 C20.08939453 90.54335937 18.84480469 90.89140625 17.5625 91.25 C16.32177734 91.61351563 15.08105469 91.97703125 13.80273438 92.3515625 C4.59792058 95 4.59792058 95 0 95 C0 90.38 0 85.76 0 81 C3.24741067 79.82565961 6.49757549 78.66030021 9.75 77.5 C10.67039062 77.16613281 11.59078125 76.83226563 12.5390625 76.48828125 C13.42851563 76.17246094 14.31796875 75.85664062 15.234375 75.53125 C16.05131836 75.23798828 16.86826172 74.94472656 17.70996094 74.64257812 C20 74 20 74 24 74 C23.98259766 73.10603516 23.96519531 72.21207031 23.94726562 71.29101562 C23.82072208 59.30553371 24.60739755 47.44729408 25.5 35.5 C25.64505617 33.50134011 25.78959071 31.50264229 25.93359375 29.50390625 C26.28211206 24.66871551 26.64125725 19.8344856 27 15 C18.09 15 9.18 15 0 15 C0 10.05 0 5.1 0 0 Z " fill="#34C0F0" transform="translate(72,24)"/>
<path d="M0 0 C5.61 0 11.22 0 17 0 C17 0.99 17 1.98 17 3 C12.38 3 7.76 3 3 3 C3.33 6.96 3.66 10.92 4 15 C12.58 15 21.16 15 30 15 C30 19.29 30 23.58 30 28 C18.61607143 33.75892857 18.61607143 33.75892857 11.9375 31.9375 C8.87226954 30.88875008 6.71914287 29.81276191 4 28 C3.8125 24.375 3.8125 24.375 4 21 C0.37 21 -3.26 21 -7 21 C-7 26.61 -7 32.22 -7 38 C-5.824375 38.226875 -4.64875 38.45375 -3.4375 38.6875 C3.54313956 40.22010836 10.25376175 42.671259 17 45 C17 45.66 17 46.32 17 47 C15.02 47 13.04 47 11 47 C10.67 46.34 10.34 45.68 10 45 C6.4337035 44.07276291 2.86904715 43.3119253 -0.7421875 42.58789062 C-1.495 42.42611328 -2.2478125 42.26433594 -3.0234375 42.09765625 C-4.05863525 41.88894897 -4.05863525 41.88894897 -5.11474609 41.67602539 C-7.42608697 40.84721124 -8.50824817 39.94406727 -10 38 C-10.2172101 35.35003674 -10.28351554 32.94923442 -10.1875 30.3125 C-10.17396484 29.61060547 -10.16042969 28.90871094 -10.14648438 28.18554688 C-10.11120182 26.45670171 -10.05739583 24.72825235 -10 23 C-10.33 23 -10.66 23 -11 23 C-11 21.35 -11 19.7 -11 18 C-7.04 18 -3.08 18 1 18 C1.02707139 15.75006641 1.04642829 13.50003905 1.0625 11.25 C1.07410156 9.99703125 1.08570313 8.7440625 1.09765625 7.453125 C1.12021394 3.87165082 1.12021394 3.87165082 0 0 Z " fill="#1182D5" transform="translate(55,60)"/>
<path d="M0 0 C3.63 0 7.26 0 11 0 C10.9175 1.051875 10.835 2.10375 10.75 3.1875 C10.86997125 5.18087618 10.86997125 5.18087618 12 7 C15.81843654 9.20063961 19.81982854 10.63182925 24 12 C24 15.96 24 19.92 24 24 C15.70994921 22.40016564 7.97972154 19.73179656 0 17 C0 11.39 0 5.78 0 0 Z " fill="#D2DEE8" transform="translate(48,81)"/>
<path d="M0 0 C9.9 0 19.8 0 30 0 C30.18739712 13.92204436 29.44730643 27.67608973 28.5 41.5625 C28.35495862 43.74931518 28.21042407 45.93616404 28.06640625 48.12304688 C27.71676556 53.41576613 27.36092433 58.70803884 27 64 C23.06495351 65.34065238 19.12658354 66.67126071 15.1875 68 C14.06794922 68.3815625 12.94839844 68.763125 11.79492188 69.15625 C10.72177734 69.5171875 9.64863281 69.878125 8.54296875 70.25 C7.0583313 70.75273437 7.0583313 70.75273437 5.54370117 71.265625 C3 72 3 72 0 72 C0 71.01 0 70.02 0 69 C3.24637731 67.82307643 6.4976398 66.66027726 9.75 65.5 C10.67039062 65.16613281 11.59078125 64.83226563 12.5390625 64.48828125 C13.42851563 64.17246094 14.31796875 63.85664062 15.234375 63.53125 C16.05131836 63.23798828 16.86826172 62.94472656 17.70996094 62.64257812 C20 62 20 62 24 62 C23.98259766 61.10603516 23.96519531 60.21207031 23.94726562 59.29101562 C23.82072208 47.30553371 24.60739755 35.44729408 25.5 23.5 C25.64505617 21.50134011 25.78959071 19.50264229 25.93359375 17.50390625 C26.28211206 12.66871551 26.64125725 7.8344856 27 3 C18.09 3 9.18 3 0 3 C0 2.01 0 1.02 0 0 Z " fill="#3BB7E2" transform="translate(72,36)"/>
<path d="M0 0 C8.91 0 17.82 0 27 0 C27 3.96 27 7.92 27 12 C18.09 12 9.18 12 0 12 C0 8.04 0 4.08 0 0 Z " fill="#D5DFE8" transform="translate(45,39)"/>
<path d="M0 0 C10.23 0 20.46 0 31 0 C31 0.99 31 1.98 31 3 C22.09 3 13.18 3 4 3 C4 6.96 4 10.92 4 15 C12.91 15 21.82 15 31 15 C31 15.99 31 16.98 31 18 C21.43 18 11.86 18 2 18 C0.2860675 14.572135 0.98836682 10.71683807 1.0625 6.9453125 C1.10450513 3.78930641 1.10450513 3.78930641 0 0 Z " fill="#1C8CDA" transform="translate(41,36)"/>
<path d="M0 0 C4.29 0 8.58 0 13 0 C13 4.29 13 8.58 13 13 C3.8203125 17.00390625 3.8203125 17.00390625 1 18 C0.34 17.67 -0.32 17.34 -1 17 C-0.67 11.39 -0.34 5.78 0 0 Z " fill="#34BEED" transform="translate(72,75)"/>
<path d="M0 0 C4.62 0 9.24 0 14 0 C14 3.96 14 7.92 14 12 C9.38 12 4.76 12 0 12 C0 8.04 0 4.08 0 0 Z " fill="#31B2DE" transform="translate(72,51)"/>
<path d="M0 0 C4.62 0 9.24 0 14 0 C14 3.96 14 7.92 14 12 C9.71 12 5.42 12 1 12 C-0.07396066 7.70415737 -0.07329796 4.39787789 0 0 Z " fill="#D1DEE8" transform="translate(58,63)"/>
<path d="M0 0 C9.9 0 19.8 0 30 0 C30 14.625 30 14.625 28 20 C27.67 20 27.34 20 27 20 C27 14.39 27 8.78 27 3 C18.09 3 9.18 3 0 3 C0 2.01 0 1.02 0 0 Z " fill="#32B2DE" transform="translate(72,36)"/>
<path d="M0 0 C0.66 0 1.32 0 2 0 C2 1.65 2 3.3 2 5 C10.91 5 19.82 5 29 5 C29 5.99 29 6.98 29 8 C19.62122392 8.1598655 10.34809779 7.66433182 1 7 C0.67 4.69 0.34 2.38 0 0 Z " fill="#1585D3" transform="translate(43,46)"/>
<path d="M0 0 C4.29 0 8.58 0 13 0 C13 4.29 13 8.58 13 13 C3.8203125 17.00390625 3.8203125 17.00390625 1 18 C0.34 17.67 -0.32 17.34 -1 17 C0.24460783 16.32332002 1.49596896 15.65905281 2.75 15 C3.79414062 14.443125 3.79414062 14.443125 4.859375 13.875 C7 13 7 13 11 13 C11 9.37 11 5.74 11 2 C7.37 2 3.74 2 0 2 C0 1.34 0 0.68 0 0 Z " fill="#48B6DC" transform="translate(72,75)"/>
<path d="M0 0 C3.63 0 7.26 0 11 0 C11 1.98 11 3.96 11 6 C7.37 6 3.74 6 0 6 C0 4.02 0 2.04 0 0 Z " fill="#35C1F1" transform="translate(72,54)"/>
<path d="M0 0 C0.33 0 0.66 0 1 0 C1.82810601 6.81508864 2.50413785 12.51870203 0 19 C-1.78871178 19.38885039 -3.58112874 19.76069196 -5.375 20.125 C-6.37273437 20.33382812 -7.37046875 20.54265625 -8.3984375 20.7578125 C-9.25695312 20.83773437 -10.11546875 20.91765625 -11 21 C-11.66 20.34 -12.32 19.68 -13 19 C-11.58603098 18.49242138 -10.16868271 17.99425075 -8.75 17.5 C-7.96109375 17.2215625 -7.1721875 16.943125 -6.359375 16.65625 C-4 16 -4 16 0 16 C0 10.72 0 5.44 0 0 Z " fill="#4AB8DE" transform="translate(96,82)"/>
<path d="M0 0 C0.33 0 0.66 0 1 0 C1 1.98 1 3.96 1 6 C1.61488281 6.06058594 2.22976562 6.12117188 2.86328125 6.18359375 C4.07564453 6.30927734 4.07564453 6.30927734 5.3125 6.4375 C6.11300781 6.51871094 6.91351563 6.59992188 7.73828125 6.68359375 C10 7 10 7 13 8 C13 8.99 13 9.98 13 11 C8.02693484 10.50269348 4.36200187 9.44697666 0 7 C0 4.69 0 2.38 0 0 Z " fill="#288AD2" transform="translate(59,81)"/>
<path d="M0 0 C4.29 0 8.58 0 13 0 C12.67 1.32 12.34 2.64 12 4 C11.67 3.67 11.34 3.34 11 3 C9.15108054 2.76636119 7.29511969 2.58696365 5.4375 2.4375 C4.42558594 2.35371094 3.41367188 2.26992187 2.37109375 2.18359375 C1.19740234 2.09271484 1.19740234 2.09271484 0 2 C0 1.34 0 0.68 0 0 Z " fill="#30AEDA" transform="translate(72,75)"/>
</svg>
