<?xml version="1.0" encoding="UTF-8"?>
<svg version="1.1" xmlns="http://www.w3.org/2000/svg" width="240" height="240">
<path d="M0 0 C4.18726294 -0.11679952 8.37410301 -0.18745327 12.5625 -0.25 C14.33463867 -0.30027344 14.33463867 -0.30027344 16.14257812 -0.3515625 C24.25267349 -0.44243192 28.60889562 0.28373903 34.85546875 5.5703125 C46.78742188 19.49675633 47.12520349 39.60337564 46 57 C44.87900237 68.39319314 41.96401629 78.10656531 33.13671875 85.7109375 C27.29344824 89.23612812 21.77462037 90.44591817 15.0234375 90.34057617 C14.27124435 90.34101425 13.51905121 90.34145233 12.74406433 90.34190369 C10.2874343 90.33983364 7.83150901 90.3165886 5.375 90.29296875 C3.66007866 90.28736642 1.94515249 90.28309933 0.23022461 90.28010559 C-4.26118462 90.26870694 -8.75229811 90.23928323 -13.24359131 90.20599365 C-17.83553061 90.17518482 -22.42751816 90.16157724 -27.01953125 90.14648438 C-36.01315004 90.11440826 -45.00655033 90.06327286 -54 90 C-54 93.3 -54 96.6 -54 100 C-39.15 100 -24.3 100 -9 100 C-8.938125 104.66125 -8.87625 109.3225 -8.8125 114.125 C-8.77153198 116.31406982 -8.77153198 116.31406982 -8.72973633 118.54736328 C-8.72224365 119.70993652 -8.71475098 120.87250977 -8.70703125 122.0703125 C-8.6913208 123.25383301 -8.67561035 124.43735352 -8.65942383 125.65673828 C-9.17169059 130.68539848 -11.01724089 133.91379256 -14.375 137.625 C-24.06817425 145.17495984 -38.46238215 145.19918249 -50.125 145.25 C-51.86523438 145.2809375 -51.86523438 145.2809375 -53.640625 145.3125 C-63.87008146 145.35826938 -74.19048718 144.54437323 -82.3125 137.7421875 C-87.95787598 131.91385952 -90.09526488 126.11868618 -90.16113281 118.0612793 C-90.17074036 117.10646164 -90.1803479 116.15164398 -90.19024658 115.16789246 C-90.19449646 114.14698013 -90.19874634 113.12606781 -90.203125 112.07421875 C-90.20882507 111.01266068 -90.21452515 109.9511026 -90.22039795 108.8573761 C-90.22983063 106.61399324 -90.23637504 104.37059663 -90.24023438 102.12719727 C-90.24993555 98.71020122 -90.2809742 95.29380803 -90.3125 91.87695312 C-90.31903116 89.69271189 -90.32428119 87.50846637 -90.328125 85.32421875 C-90.3404718 84.30937912 -90.3528186 83.29453949 -90.36553955 82.24894714 C-90.34118115 74.42242033 -89.20564234 67.33504508 -83.57763672 61.37158203 C-73.89107467 52.95017913 -62.01887585 54.2840224 -49.9375 54.3125 C-46.95864223 54.30355738 -43.98011284 54.28743515 -41.00135803 54.2610321 C-39.15818245 54.24631339 -37.31487865 54.24219493 -35.47166443 54.25080872 C-28.22070526 54.21890258 -20.71628247 53.74252031 -14.625 49.4375 C-12.29963976 47.82505884 -10.73575708 46.91191903 -8 46 C-6.97348627 44.28480253 -6.97348627 44.28480253 -6 42 C-4.98299153 40.25074542 -3.94626912 38.51456005 -2.90234375 36.78125 C-0.79120808 32.61381335 -0.81599397 28.44321839 -0.68359375 23.828125 C-0.6524221 22.8044986 -0.6524221 22.8044986 -0.62062073 21.76019287 C-0.55547948 19.59022644 -0.49640596 17.42014376 -0.4375 15.25 C-0.39428103 13.77472779 -0.35066568 12.29946713 -0.30664062 10.82421875 C-0.19983482 7.21626834 -0.09846847 3.60818867 0 0 Z M-32.5 113.1875 C-34.21858593 115.85503933 -34.21858593 115.85503933 -33.9375 118.625 C-32.89215986 121.27319502 -32.41288502 122.47183949 -30 124 C-26.5 124.58333333 -26.5 124.58333333 -23 124 C-20.81452316 122.55851025 -20.81452316 122.55851025 -20 120 C-20.18458358 114.94892809 -20.18458358 114.94892809 -23 111 C-27.28412274 110.44465076 -29.18711552 110.28872608 -32.5 113.1875 Z " fill="#FFC106" transform="translate(167,70)"/>
<path d="M0 0 C1.63485352 -0.02416992 1.63485352 -0.02416992 3.30273438 -0.04882812 C14.44300146 -0.05544742 25.62668269 1.47054496 34.0625 9.3125 C39.16923444 16.52739223 39.79258705 23.45448264 39.69140625 32.07421875 C39.69381821 33.26425003 39.69623016 34.45428131 39.69871521 35.68037415 C39.69774095 38.18058628 39.68444892 40.68082112 39.65942383 43.1809082 C39.62500355 46.9996065 39.63881854 50.81600172 39.65820312 54.63476562 C39.65130693 57.07292647 39.64163661 59.51108139 39.62890625 61.94921875 C39.63386612 63.08477707 39.63882599 64.22033539 39.64393616 65.39030457 C39.53184182 72.95230635 38.4905233 77.44498654 33.38671875 83.203125 C32.84660156 83.65171875 32.30648437 84.1003125 31.75 84.5625 C30.95142578 85.25085938 30.95142578 85.25085938 30.13671875 85.953125 C23.88016536 90.05346508 18.64549909 90.75293507 11.32421875 90.75390625 C9.94300591 90.77371803 9.94300591 90.77371803 8.53388977 90.79393005 C5.60589576 90.83460245 2.67821121 90.85641661 -0.25 90.875 C-3.1674022 90.89893493 -6.08451944 90.92731888 -9.00175476 90.96678162 C-10.81042077 90.99077069 -12.61923522 91.00592647 -14.42805481 91.01039124 C-25.59157048 91.14616744 -34.68769022 92.95352324 -42.7265625 101.1328125 C-50.14719105 110.16185315 -50.42232161 120.69174463 -50.625 131.9375 C-50.65916016 133.22785156 -50.69332031 134.51820313 -50.72851562 135.84765625 C-50.81030832 139.00251717 -50.87968232 142.1571241 -50.9375 145.3125 C-54.93724981 145.42960979 -58.93655281 145.50005489 -62.9375 145.5625 C-64.06285156 145.59601563 -65.18820313 145.62953125 -66.34765625 145.6640625 C-74.24717973 145.75645459 -79.91135967 144.92797401 -85.890625 139.55859375 C-97.23533653 123.73750508 -98.46329312 102.35606415 -95.56640625 83.71875 C-93.71256509 73.67806993 -90.7937894 66.5469626 -83.01171875 59.70703125 C-77.50001167 56.00142028 -72.64929044 54.86986441 -66.07446289 54.97192383 C-65.32241577 54.97148575 -64.57036865 54.97104767 -63.79553223 54.97059631 C-61.33346722 54.97267036 -58.87210087 54.99593476 -56.41015625 55.01953125 C-54.69380566 55.02513215 -52.97745025 55.02939992 -51.26109314 55.03239441 C-46.76144989 55.0438043 -42.26210089 55.07323794 -37.76257324 55.10650635 C-33.1640216 55.1372907 -28.56542204 55.15091757 -23.96679688 55.16601562 C-14.95690255 55.19811163 -5.94722582 55.24926094 3.0625 55.3125 C3.0625 52.0125 3.0625 48.7125 3.0625 45.3125 C-11.7875 45.3125 -26.6375 45.3125 -41.9375 45.3125 C-41.999375 41.373125 -42.06125 37.43375 -42.125 33.375 C-42.16596802 31.54014038 -42.16596802 31.54014038 -42.20776367 29.66821289 C-42.26737571 21.77057909 -41.63976136 14.99740186 -36.875 8.5 C-26.25823323 0.59389709 -12.77156304 -0.03762983 0 0 Z M-29.4375 23.5 C-31.15608593 26.16753933 -31.15608593 26.16753933 -30.875 28.9375 C-29.82965986 31.58569502 -29.35038502 32.78433949 -26.9375 34.3125 C-23.4375 34.89583333 -23.4375 34.89583333 -19.9375 34.3125 C-17.75202316 32.87101025 -17.75202316 32.87101025 -16.9375 30.3125 C-17.12208358 25.26142809 -17.12208358 25.26142809 -19.9375 21.3125 C-24.22162274 20.75715076 -26.12461552 20.60122608 -29.4375 23.5 Z " fill="#0176BC" transform="translate(118.9375,24.6875)"/>
</svg>
